<svg width="360" height="76" viewBox="0 0 360 76" fill="none" xmlns="http://www.w3.org/2000/svg">
<path fill-rule="evenodd" clip-rule="evenodd" d="M15 4H345C351.075 4 356 8.92487 356 15V61C356 67.0751 351.075 72 345 72H15C8.92487 72 4 67.0751 4 61V15C4 8.92487 8.92487 4 15 4ZM0 15C0 6.71573 6.71573 0 15 0H345C353.284 0 360 6.71573 360 15V61C360 69.2843 353.284 76 345 76H15C6.71574 76 0 69.2843 0 61V15ZM24.52 50.448C27.016 53.52 30.392 55.056 34.648 55.056C38.936 55.056 42.328 53.456 44.824 50.256C47.352 47.056 48.616 42.736 48.616 37.296C48.616 32.272 47.368 28.288 44.872 25.344C42.408 22.4 39.08 20.928 34.888 20.928C30.504 20.928 27.064 22.448 24.568 25.488C22.072 28.496 20.824 32.656 20.824 37.968C20.824 43.216 22.056 47.376 24.52 50.448ZM27.592 27.936C29.288 25.568 31.672 24.384 34.744 24.384C37.848 24.384 40.232 25.552 41.896 27.888C43.56 30.192 44.392 33.488 44.392 37.776C44.392 42.032 43.512 45.408 41.752 47.904C40.024 50.368 37.672 51.6 34.696 51.6C31.656 51.6 29.288 50.416 27.592 48.048C25.896 45.648 25.048 42.272 25.048 37.92C25.048 33.632 25.896 30.304 27.592 27.936ZM63.8931 32.448L63.9891 29.376C64.0211 27.904 64.1171 26.928 64.2771 26.448C64.6291 25.36 65.3171 24.816 66.3411 24.816C66.5971 24.816 66.9811 24.864 67.4931 24.96C68.0051 25.024 68.3891 25.056 68.6451 25.056C69.7651 25.056 70.3251 24.512 70.3251 23.424C70.3251 22.336 69.6691 21.792 68.3571 21.792C67.9091 21.792 67.4931 21.824 67.1091 21.888C65.3171 22.176 63.7331 22.32 62.3571 22.32C61.0131 22.32 59.5571 22.192 57.9891 21.936C57.4131 21.84 56.8691 21.792 56.3571 21.792C55.1411 21.792 54.5331 22.336 54.5331 23.424C54.5331 24.512 55.2051 25.056 56.5491 25.056H57.1731C57.3011 25.024 57.4451 24.992 57.6051 24.96H57.9411C58.9651 24.96 59.5891 25.84 59.8131 27.6C59.8451 27.888 59.8611 29.2 59.8611 31.536V34.08C59.8611 35.232 59.8131 36.944 59.7171 39.216C59.6211 41.456 59.5731 43.152 59.5731 44.304C59.5731 46.672 59.8291 48.416 60.3411 49.536C61.9731 53.216 65.6051 55.056 71.2371 55.056C75.8131 55.056 79.0611 53.664 80.9811 50.88C81.8131 49.696 82.3571 48.304 82.6131 46.704C82.7411 45.776 82.8051 44.272 82.8051 42.192V33.792C82.8051 29.824 82.9171 27.36 83.1411 26.4C83.3651 25.44 83.9571 24.96 84.9171 24.96C85.1411 24.96 85.3011 24.976 85.3971 25.008H85.9251C87.2371 25.008 87.8931 24.464 87.8931 23.376C87.8931 22.288 87.2211 21.744 85.8771 21.744C85.6851 21.744 85.3011 21.792 84.7251 21.888L82.6611 22.224C82.0851 22.32 81.3651 22.368 80.5011 22.368C79.6051 22.368 78.8051 22.32 78.1011 22.224L75.2691 21.84C75.0451 21.808 74.8211 21.792 74.5971 21.792C73.1891 21.792 72.4851 22.368 72.4851 23.52C72.4851 23.936 72.6291 24.304 72.9171 24.624C73.2371 24.944 73.6051 25.104 74.0211 25.104C74.2771 25.104 74.7091 25.056 75.3171 24.96C75.7331 24.896 76.0531 24.864 76.2771 24.864C77.6211 24.864 78.4371 25.68 78.7251 27.312C78.7891 27.632 78.8211 29.008 78.8211 31.44L78.7251 43.776C78.6931 45.536 78.4851 46.992 78.1011 48.144C77.7491 49.264 76.9491 50.16 75.7011 50.832C74.4531 51.504 72.9491 51.84 71.1891 51.84C69.8451 51.84 68.5331 51.568 67.2531 51.024C65.8771 50.448 64.9331 49.648 64.4211 48.624C63.9411 47.6 63.7011 45.968 63.7011 43.728V36.336L63.8931 32.448ZM111.315 51.264C109.683 51.264 108.867 50.064 108.867 47.664L108.915 31.344L109.059 27.984C109.123 26.832 109.411 26.016 109.923 25.536C110.435 25.024 111.283 24.768 112.467 24.768H113.811C116.339 24.768 117.603 25.872 117.603 28.08C117.603 28.656 117.555 29.52 117.459 30.672C117.363 31.792 117.315 32.64 117.315 33.216C117.315 34.816 117.923 35.616 119.139 35.616C120.387 35.616 121.011 34.96 121.011 33.648C121.011 33.328 120.947 32.496 120.819 31.152C120.723 30.128 120.675 29.376 120.675 28.896V28.368C120.771 27.376 120.851 26.448 120.915 25.584C121.011 24.72 121.059 24.128 121.059 23.808V23.712C121.059 22.4 120.259 21.744 118.659 21.744C117.923 21.744 116.899 21.792 115.587 21.888C114.115 21.984 113.075 22.032 112.467 22.032C109.683 22.096 107.971 22.128 107.331 22.128L101.859 22.032C99.3952 21.968 98.0832 21.936 97.9232 21.936C96.2912 21.84 95.2512 21.792 94.8032 21.792C93.5872 21.792 92.9792 22.464 92.9792 23.808C92.9792 23.552 93.0432 24.272 93.1712 25.968C93.2352 26.832 93.2673 27.664 93.2673 28.464C93.2673 28.88 93.2192 29.856 93.1232 31.392C93.0592 32.416 93.0272 33.136 93.0272 33.552C93.0272 35.024 93.6192 35.76 94.8032 35.76C96.0512 35.76 96.6752 34.752 96.6752 32.736C96.6752 32.224 96.6592 31.824 96.6273 31.536L96.4352 29.76C96.4032 29.472 96.3872 28.928 96.3872 28.128C96.3872 25.888 97.5392 24.768 99.8432 24.768H101.331C103.667 24.768 104.835 25.904 104.835 28.176L104.883 36V40.08L104.835 44.304V47.664C104.835 50.064 104.035 51.264 102.435 51.264C102.179 51.264 101.795 51.232 101.283 51.168C100.771 51.072 100.387 51.024 100.131 51.024C99.1072 51.024 98.5952 51.536 98.5952 52.56C98.5952 53.68 99.2992 54.24 100.707 54.24H101.043C101.171 54.208 101.283 54.192 101.379 54.192L103.779 53.856C104.707 53.728 105.779 53.664 106.995 53.664C108.115 53.664 109.123 53.728 110.019 53.856L112.371 54.192C112.435 54.192 112.547 54.208 112.707 54.24H112.995C114.435 54.24 115.155 53.68 115.155 52.56C115.155 52.144 114.995 51.792 114.675 51.504C114.387 51.184 114.035 51.024 113.619 51.024C113.363 51.024 112.979 51.072 112.467 51.168C111.955 51.232 111.571 51.264 111.315 51.264ZM130.598 24.816C132.23 24.816 133.046 26 133.046 28.368V47.616C133.046 50.016 132.23 51.216 130.598 51.216C130.278 51.216 129.942 51.168 129.59 51.072C128.886 51.008 128.454 50.976 128.294 50.976C127.302 50.976 126.806 51.488 126.806 52.512C126.806 53.664 127.478 54.24 128.822 54.24H129.11C129.27 54.208 129.414 54.192 129.542 54.192C132.422 54 135.366 53.904 138.374 53.904C140.358 53.904 142.71 53.936 145.43 54C148.15 54.064 149.398 54.096 149.174 54.096C150.198 54.096 150.902 54.112 151.286 54.144C152.054 54.208 152.614 54.24 152.966 54.24C154.438 54.24 155.174 53.488 155.174 51.984C155.174 51.536 155.142 50.88 155.078 50.016C155.046 49.12 155.03 48.448 155.03 48C155.03 47.424 155.062 46.544 155.126 45.36C155.19 44.176 155.222 43.296 155.222 42.72C155.222 41.248 154.614 40.512 153.398 40.512C152.246 40.512 151.67 41.232 151.67 42.672C151.67 43.152 151.686 43.872 151.718 44.832C151.782 45.76 151.814 46.464 151.814 46.944C151.814 48.48 151.462 49.536 150.758 50.112C150.054 50.656 148.758 50.928 146.87 50.928H140.342C139.03 50.928 138.198 50.816 137.846 50.592C137.366 50.272 137.11 49.472 137.078 48.192C137.078 47.84 137.062 47.136 137.03 46.08C136.998 45.216 136.982 44.528 136.982 44.016V41.04C136.982 39.984 137.078 39.296 137.27 38.976C137.494 38.656 138.07 38.496 138.998 38.496H141.158C142.982 38.496 143.894 39.184 143.894 40.56C143.894 40.912 143.846 41.424 143.75 42.096C143.686 42.768 143.654 43.28 143.654 43.632C143.654 44.976 144.214 45.648 145.334 45.648C146.486 45.648 147.062 45.072 147.062 43.92C147.062 43.504 147.014 42.944 146.918 42.24C146.79 41.376 146.71 40.816 146.678 40.56C146.55 38.928 146.486 37.792 146.486 37.152C146.486 36.032 146.582 34.736 146.774 33.264C146.998 31.536 147.11 30.544 147.11 30.288C147.11 28.912 146.534 28.224 145.382 28.224C144.23 28.224 143.654 28.864 143.654 30.144C143.654 30.624 143.702 31.168 143.798 31.776C143.894 32.384 143.942 32.88 143.942 33.264C143.942 34.64 142.934 35.328 140.918 35.328H138.95C138.406 35.328 138.022 35.296 137.798 35.232C137.222 35.04 136.934 34.304 136.934 33.024V32.4C136.934 32.208 136.95 31.888 136.982 31.44V30.384V28.224C136.982 26.656 137.67 25.696 139.046 25.344C139.462 25.248 140.806 25.2 143.078 25.2C146.534 25.2 148.678 25.376 149.51 25.728C150.63 26.208 151.19 27.792 151.19 30.48V32.976C151.19 34.672 151.766 35.52 152.918 35.52C154.07 35.52 154.646 34.912 154.646 33.696C154.646 33.248 154.582 32.56 154.454 31.632C154.39 31.184 154.358 30.4 154.358 29.28C154.358 28.416 154.406 27.472 154.502 26.448C154.63 25.072 154.694 24.256 154.694 24C154.694 22.528 153.862 21.792 152.198 21.792C151.782 21.792 151.318 21.808 150.806 21.84C149.366 21.936 148.534 21.984 148.31 21.984L136.742 22.32H136.262C136.582 22.32 134.342 22.16 129.542 21.84C129.094 21.808 128.854 21.792 128.822 21.792C127.478 21.792 126.806 22.352 126.806 23.472C126.806 23.92 126.95 24.304 127.238 24.624C127.526 24.912 127.878 25.056 128.294 25.056C128.646 25.056 129.078 25.008 129.59 24.912C129.814 24.848 130.15 24.816 130.598 24.816ZM184.015 37.488C185.455 37.168 186.639 36.784 187.567 36.336C189.999 35.184 191.215 33.024 191.215 29.856C191.215 24.48 187.695 21.792 180.655 21.792C179.631 21.792 178.511 21.824 177.295 21.888L173.647 22.08C172.431 22.144 171.327 22.176 170.335 22.176C169.375 22.176 168.575 22.144 167.935 22.08L165.487 21.84C165.167 21.808 164.943 21.792 164.815 21.792C163.407 21.792 162.703 22.352 162.703 23.472C162.703 23.888 162.847 24.256 163.135 24.576C163.423 24.864 163.775 25.008 164.191 25.008C164.447 25.008 164.831 24.976 165.343 24.912C165.855 24.816 166.239 24.768 166.495 24.768C168.127 24.768 168.943 25.968 168.943 28.368V47.616C168.943 50.016 168.127 51.216 166.495 51.216C166.175 51.216 165.839 51.168 165.487 51.072C164.783 51.008 164.351 50.976 164.191 50.976C163.199 50.976 162.703 51.488 162.703 52.512C162.703 53.664 163.391 54.24 164.767 54.24C164.735 54.24 164.975 54.208 165.487 54.144L167.791 53.856C169.071 53.696 170.191 53.616 171.151 53.616C171.919 53.616 172.799 53.68 173.791 53.808L176.383 54.144L177.103 54.24C178.479 54.24 179.167 53.664 179.167 52.512C179.167 51.424 178.655 50.88 177.631 50.88C177.343 50.88 176.927 50.928 176.383 51.024C176.159 51.088 175.823 51.12 175.375 51.12C174.063 51.12 173.263 50.32 172.975 48.72C172.911 48.4 172.879 47.056 172.879 44.688V40.992C172.879 39.744 173.391 39.12 174.415 39.12H178.879C181.439 39.12 183.119 39.472 183.919 40.176C184.751 40.848 185.167 42.256 185.167 44.4V45.456L185.119 47.088V48.528C185.119 52.336 187.007 54.24 190.783 54.24C192.639 54.24 194.079 53.728 195.103 52.704C196.159 51.648 196.687 50.192 196.687 48.336C196.687 47.952 196.671 47.664 196.639 47.472V46.272C196.639 46.08 196.655 45.648 196.687 44.976L196.735 43.968C196.767 43.296 196.783 42.944 196.783 42.912C196.783 41.568 196.207 40.896 195.055 40.896C194.319 40.896 193.823 41.168 193.567 41.712C193.439 42.064 193.375 42.704 193.375 43.632V44.304L193.423 45.504V46.944C193.423 49.696 192.671 51.072 191.167 51.072C189.695 51.072 188.959 49.92 188.959 47.616C188.959 47.36 188.975 47.168 189.007 47.04V44.832C189.007 42.4 188.639 40.656 187.903 39.6C187.199 38.544 185.903 37.84 184.015 37.488ZM178.783 35.904H174.271C173.727 35.904 173.359 35.84 173.167 35.712C172.975 35.552 172.879 35.2 172.879 34.656V29.136L172.927 27.6C172.959 26.416 173.439 25.632 174.367 25.248C175.327 24.832 177.135 24.624 179.791 24.624C184.783 24.624 187.279 26.448 187.279 30.096C187.279 32.272 186.463 33.824 184.831 34.752C183.487 35.52 181.471 35.904 178.783 35.904ZM218.745 50.016L211.977 29.52L211.449 27.792C211.288 27.28 211.208 26.8 211.208 26.352C211.208 25.456 211.913 25.008 213.32 25.008C213.673 25.008 213.945 25.024 214.137 25.056H214.617C214.84 25.088 214.984 25.104 215.049 25.104C216.264 25.104 216.872 24.528 216.872 23.376C216.872 22.32 216.281 21.792 215.096 21.792C214.329 21.792 213.161 21.904 211.592 22.128C210.025 22.32 208.84 22.416 208.04 22.416C206.665 22.416 205.081 22.24 203.288 21.888C202.809 21.792 202.376 21.744 201.992 21.744C200.712 21.744 200.072 22.32 200.072 23.472C200.072 24.592 200.697 25.152 201.945 25.152C202.137 25.152 202.441 25.136 202.857 25.104C203.273 25.072 203.577 25.056 203.768 25.056C204.729 25.056 205.432 25.328 205.88 25.872C206.137 26.192 206.473 26.944 206.889 28.128L215.48 52.272C216.025 53.84 217.064 54.624 218.6 54.624C220.072 54.624 221.081 53.84 221.624 52.272L229.497 29.184C230.105 27.424 230.568 26.288 230.889 25.776C231.24 25.232 231.689 24.96 232.232 24.96H232.473L233.577 25.056C233.673 25.088 233.736 25.104 233.768 25.104C234.952 25.104 235.544 24.56 235.544 23.472C235.544 22.352 234.952 21.792 233.768 21.792C233.288 21.792 232.777 21.84 232.232 21.936C230.536 22.224 229.113 22.368 227.96 22.368C227.257 22.368 226.217 22.272 224.84 22.08C223.497 21.888 222.488 21.792 221.816 21.792C220.6 21.792 219.993 22.336 219.993 23.424C219.993 24.544 220.617 25.104 221.865 25.104C222.089 25.104 222.441 25.072 222.921 25.008C223.4 24.912 223.753 24.864 223.977 24.864C225.257 24.864 225.896 25.472 225.896 26.688C225.896 27.328 225.656 28.416 225.176 29.952L218.745 50.016ZM243.538 24.816C245.17 24.816 245.986 26 245.986 28.368V47.616C245.986 50.016 245.17 51.216 243.538 51.216C243.218 51.216 242.882 51.168 242.53 51.072C241.826 51.008 241.394 50.976 241.234 50.976C240.242 50.976 239.746 51.488 239.746 52.512C239.746 53.664 240.434 54.24 241.81 54.24H242.194C242.354 54.208 242.466 54.192 242.53 54.192L244.738 53.856C245.794 53.696 246.994 53.616 248.338 53.616C249.266 53.616 250.146 53.68 250.978 53.808L253.474 54.192C253.57 54.192 253.682 54.208 253.81 54.24H254.146C255.554 54.24 256.258 53.664 256.258 52.512C256.258 51.488 255.762 50.976 254.77 50.976C254.514 50.976 254.082 51.024 253.474 51.12C253.058 51.184 252.722 51.216 252.466 51.216C250.834 51.216 250.018 50.016 250.018 47.616V28.368C250.018 26 250.834 24.816 252.466 24.816C252.914 24.816 253.25 24.848 253.474 24.912C254.018 25.008 254.45 25.056 254.77 25.056C255.186 25.056 255.538 24.912 255.826 24.624C256.114 24.304 256.258 23.92 256.258 23.472C256.258 22.352 255.554 21.792 254.146 21.792C253.954 21.792 253.73 21.808 253.474 21.84L251.314 22.128C250.13 22.288 249.042 22.368 248.05 22.368C247.026 22.368 246.034 22.304 245.074 22.176L242.53 21.84C242.274 21.808 242.05 21.792 241.858 21.792C240.45 21.792 239.746 22.352 239.746 23.472C239.746 23.92 239.89 24.304 240.178 24.624C240.466 24.912 240.818 25.056 241.234 25.056C241.586 25.056 242.018 25.008 242.53 24.912C242.754 24.848 243.09 24.816 243.538 24.816ZM265.466 24.816C267.099 24.816 267.914 26 267.914 28.368V47.616C267.914 50.016 267.099 51.216 265.466 51.216C265.146 51.216 264.81 51.168 264.458 51.072C263.754 51.008 263.323 50.976 263.163 50.976C262.171 50.976 261.674 51.488 261.674 52.512C261.674 53.664 262.346 54.24 263.69 54.24H263.978C264.138 54.208 264.283 54.192 264.41 54.192C267.29 54 270.234 53.904 273.242 53.904C275.227 53.904 277.578 53.936 280.298 54C283.018 54.064 284.267 54.096 284.043 54.096C285.066 54.096 285.771 54.112 286.155 54.144C286.922 54.208 287.482 54.24 287.835 54.24C289.306 54.24 290.043 53.488 290.043 51.984C290.043 51.536 290.01 50.88 289.947 50.016C289.914 49.12 289.898 48.448 289.898 48C289.898 47.424 289.931 46.544 289.995 45.36C290.059 44.176 290.09 43.296 290.09 42.72C290.09 41.248 289.482 40.512 288.267 40.512C287.115 40.512 286.538 41.232 286.538 42.672C286.538 43.152 286.555 43.872 286.586 44.832C286.651 45.76 286.682 46.464 286.682 46.944C286.682 48.48 286.331 49.536 285.626 50.112C284.922 50.656 283.626 50.928 281.738 50.928H275.211C273.898 50.928 273.066 50.816 272.715 50.592C272.234 50.272 271.978 49.472 271.947 48.192C271.947 47.84 271.931 47.136 271.898 46.08C271.866 45.216 271.85 44.528 271.85 44.016V41.04C271.85 39.984 271.947 39.296 272.138 38.976C272.362 38.656 272.939 38.496 273.866 38.496H276.026C277.85 38.496 278.763 39.184 278.763 40.56C278.763 40.912 278.715 41.424 278.618 42.096C278.555 42.768 278.522 43.28 278.522 43.632C278.522 44.976 279.082 45.648 280.202 45.648C281.354 45.648 281.931 45.072 281.931 43.92C281.931 43.504 281.883 42.944 281.786 42.24C281.659 41.376 281.578 40.816 281.547 40.56C281.418 38.928 281.354 37.792 281.354 37.152C281.354 36.032 281.451 34.736 281.642 33.264C281.866 31.536 281.978 30.544 281.978 30.288C281.978 28.912 281.402 28.224 280.25 28.224C279.099 28.224 278.522 28.864 278.522 30.144C278.522 30.624 278.57 31.168 278.667 31.776C278.763 32.384 278.81 32.88 278.81 33.264C278.81 34.64 277.802 35.328 275.786 35.328H273.819C273.275 35.328 272.891 35.296 272.667 35.232C272.09 35.04 271.802 34.304 271.802 33.024V32.4C271.802 32.208 271.819 31.888 271.85 31.44V30.384V28.224C271.85 26.656 272.538 25.696 273.914 25.344C274.331 25.248 275.674 25.2 277.947 25.2C281.402 25.2 283.547 25.376 284.379 25.728C285.499 26.208 286.059 27.792 286.059 30.48V32.976C286.059 34.672 286.634 35.52 287.786 35.52C288.939 35.52 289.514 34.912 289.514 33.696C289.514 33.248 289.451 32.56 289.323 31.632C289.258 31.184 289.227 30.4 289.227 29.28C289.227 28.416 289.275 27.472 289.37 26.448C289.499 25.072 289.562 24.256 289.562 24C289.562 22.528 288.73 21.792 287.066 21.792C286.651 21.792 286.186 21.808 285.674 21.84C284.234 21.936 283.402 21.984 283.178 21.984L271.611 22.32H271.13C271.451 22.32 269.211 22.16 264.41 21.84C263.962 21.808 263.723 21.792 263.69 21.792C262.346 21.792 261.674 22.352 261.674 23.472C261.674 23.92 261.819 24.304 262.107 24.624C262.395 24.912 262.746 25.056 263.163 25.056C263.514 25.056 263.947 25.008 264.458 24.912C264.682 24.848 265.018 24.816 265.466 24.816ZM311.011 49.68L307.075 29.376L306.787 27.84C306.691 27.328 306.643 26.88 306.643 26.496C306.643 25.44 307.203 24.912 308.323 24.912C308.611 24.912 309.043 24.944 309.619 25.008C310.227 25.072 310.675 25.104 310.963 25.104C312.371 25.104 313.075 24.528 313.075 23.376C313.075 22.32 312.499 21.792 311.347 21.792C310.899 21.792 310.435 21.824 309.955 21.888C307.203 22.208 305.443 22.368 304.675 22.368C303.043 22.368 301.363 22.224 299.635 21.936C299.059 21.84 298.547 21.792 298.099 21.792C296.979 21.792 296.419 22.352 296.419 23.472C296.419 24.528 296.931 25.056 297.955 25.056L299.011 24.96H299.347C300.275 24.96 300.947 25.184 301.363 25.632C301.811 26.048 302.179 26.864 302.467 28.08L308.179 51.984C308.595 53.744 309.555 54.624 311.059 54.624C312.531 54.624 313.443 53.76 313.795 52.032L319.123 25.968L323.971 51.36C324.387 53.536 325.427 54.624 327.091 54.624C328.659 54.624 329.651 53.744 330.067 51.984L335.443 29.088C335.859 27.296 336.211 26.144 336.499 25.632C336.819 25.12 337.315 24.864 337.987 24.864C338.179 24.864 338.467 24.896 338.851 24.96C339.235 24.992 339.523 25.008 339.715 25.008C340.867 25.008 341.443 24.496 341.443 23.472C341.443 22.352 340.851 21.792 339.667 21.792C339.027 21.792 338.067 21.888 336.787 22.08C335.539 22.272 334.595 22.368 333.955 22.368C333.123 22.368 331.395 22.208 328.771 21.888C328.227 21.824 327.699 21.792 327.187 21.792C325.843 21.792 325.171 22.32 325.171 23.376C325.171 24.464 325.859 25.008 327.235 25.008C327.523 25.008 327.939 24.992 328.483 24.96C329.027 24.928 329.443 24.912 329.731 24.912C331.075 24.912 331.747 25.568 331.747 26.88C331.747 27.616 331.603 28.688 331.315 30.096L327.235 50.016L322.435 24.336C322.083 22.416 320.995 21.456 319.171 21.456C317.443 21.456 316.371 22.544 315.955 24.72L311.011 49.68Z" fill="#69419B"/>
</svg>
