<svg width="59" height="64" viewBox="0 0 59 64" fill="none" xmlns="http://www.w3.org/2000/svg">
<path fill-rule="evenodd" clip-rule="evenodd" d="M21.824 44.128C17.568 44.128 14.192 42.592 11.696 39.52C9.232 36.448 8 32.288 8 27.04C8 21.728 9.248 17.568 11.744 14.56C14.24 11.52 17.68 10 22.064 10C26.256 10 29.584 11.472 32.048 14.416C33.801 16.4837 34.9384 19.0643 35.4603 22.158C35.7573 21.962 36.1639 21.864 36.68 21.864C37.352 21.864 38.36 21.96 39.704 22.152C41.08 22.344 42.12 22.44 42.824 22.44C43.976 22.44 45.4 22.296 47.096 22.008C47.64 21.912 48.152 21.864 48.632 21.864C49.816 21.864 50.408 22.424 50.408 23.544C50.408 24.632 49.816 25.176 48.632 25.176C48.6 25.176 48.536 25.16 48.44 25.128L47.336 25.032H47.096C46.552 25.032 46.104 25.304 45.752 25.848C45.432 26.36 44.968 27.496 44.36 29.256L36.488 52.344C35.944 53.912 34.936 54.696 33.464 54.696C31.928 54.696 30.888 53.912 30.344 52.344L27.0736 43.1539C25.5055 43.8033 23.7557 44.128 21.824 44.128ZM35.792 26.368C35.792 25.91 35.7816 25.4607 35.7609 25.02C36.0253 25.124 36.3477 25.176 36.728 25.176C36.952 25.176 37.304 25.144 37.784 25.08C38.264 24.984 38.616 24.936 38.84 24.936C40.12 24.936 40.76 25.544 40.76 26.76C40.76 27.4 40.52 28.488 40.04 30.024L33.608 50.088L30.572 40.894C31.0768 40.4234 31.5528 39.9014 32 39.328C34.528 36.128 35.792 31.808 35.792 26.368ZM31.568 26.848C31.568 30.9097 30.7665 34.1699 29.1636 36.6286L26.84 29.592L26.312 27.864C26.152 27.352 26.072 26.872 26.072 26.424C26.072 25.528 26.776 25.08 28.184 25.08C28.536 25.08 28.808 25.096 29 25.128H29.48C29.704 25.16 29.848 25.176 29.912 25.176C30.6701 25.176 31.1919 24.9521 31.4773 24.5044C31.5378 25.2496 31.568 26.0308 31.568 26.848ZM29.96 21.864C30.4728 21.864 30.8746 21.9631 31.1653 22.1612C30.7654 20.0723 30.0676 18.3386 29.072 16.96C27.408 14.624 25.024 13.456 21.92 13.456C18.848 13.456 16.464 14.64 14.768 17.008C13.072 19.376 12.224 22.704 12.224 26.992C12.224 31.344 13.072 34.72 14.768 37.12C16.464 39.488 18.832 40.672 21.872 40.672C23.3577 40.672 24.6879 40.365 25.8625 39.7509L21.752 28.2C21.336 27.016 21 26.264 20.744 25.944C20.296 25.4 19.592 25.128 18.632 25.128C18.44 25.128 18.136 25.144 17.72 25.176C17.304 25.208 17 25.224 16.808 25.224C15.56 25.224 14.936 24.664 14.936 23.544C14.936 22.392 15.576 21.816 16.856 21.816C17.24 21.816 17.672 21.864 18.152 21.96C19.944 22.312 21.528 22.488 22.904 22.488C23.704 22.488 24.888 22.392 26.456 22.2C28.024 21.976 29.192 21.864 29.96 21.864Z" fill="#69419B"/>
<path fill-rule="evenodd" clip-rule="evenodd" d="M0.175999 15.072C0.175999 6.78773 6.89173 0.0719986 15.176 0.0719986H43.176C51.4603 0.0719986 58.176 6.78773 58.176 15.072V48.072C58.176 56.3563 51.4603 63.072 43.176 63.072H15.176C6.89173 63.072 0.175999 56.3563 0.175999 48.072V15.072ZM15.176 4.072H43.176C49.2511 4.072 54.176 8.99687 54.176 15.072V48.072C54.176 54.1471 49.2511 59.072 43.176 59.072H15.176C9.10087 59.072 4.176 54.1471 4.176 48.072V15.072C4.176 8.99687 9.10087 4.072 15.176 4.072Z" fill="#69419B"/>
</svg>
